<?xml version="1.0" encoding="utf-8"?>
<!-- Generator: Adobe Illustrator 22.0.0, SVG Export Plug-In . SVG Version: 6.00 Build 0)  -->
<svg version="1.1" id="Layer_1" xmlns="http://www.w3.org/2000/svg" xmlns:xlink="http://www.w3.org/1999/xlink" x="0px" y="0px"
	 viewBox="0 0 536 372.3" style="enable-background:new 0 0 536 372.3;" xml:space="preserve">
<style type="text/css">
	.st0{fill:#FFFFFF;}
</style>
<g id="of1unN_1_">
	<g>
		<path class="st0" d="M184.9,368.2c-24.9-0.4-58-2.6-90.1-12.8c-33.6-10.7-60-30.3-75.7-62.6c-10.3-21.1-12.6-43.7-10-66.7
			c10.7-94,90.4-189.8,199.7-213.8c36.1-7.9,72.5-10,109.1-6.6c23,2.1,45,8.4,64.1,22.3c20.6,14.9,30.3,35.1,28.6,60.7
			c-0.2,3.4-1.3,5.9-5.3,5.8c-3.3-0.1-4.6-2-4.6-5.2c-0.7-34.1-13.8-52.4-46.1-64.8C333,16,310.5,13.8,287.5,13.9
			C252.5,14,218,17.3,185,29.4C100.5,60.6,45.5,119.6,22.1,206.8c-6.9,25.7-6.7,51.8,3.8,76.9c12.4,29.7,35.5,48.3,64.9,59.7
			c21,8.1,43,11.8,65.3,12.8c21.8,1,43.6,1.5,65.4,1c26.6-0.6,52.9-4.6,79.1-9.6c47.9-9.2,94.5-22.8,139.1-42.4
			c27-11.9,53-26,79.5-38.9c2.1-1,5.3-1.8,7.2-0.9c3.7,1.6,2.7,6.3-1.9,8.8c-14.9,8.1-29.6,16.4-44.8,23.9
			c-53.1,26.1-108.7,45.1-166.6,57.1C273.7,363.3,233.8,368,184.9,368.2z"/>
		<path class="st0" d="M402.3,209.4c2.2-0.8,3-0.8,3.4-1.2c10.6-9.3,18-20.7,20.9-34.6c0.4-1.8-1-4.7-2.5-5.8
			c-1.1-0.8-4.1,0.3-5.6,1.4c-2,1.3-3.9,3.3-4.9,5.4c-3.4,7.7-6.7,15.5-9.5,23.4C402.9,201.2,402.9,204.9,402.3,209.4z"/>
	</g>
</g>
</svg>
