<?xml version="1.0" encoding="utf-8"?>
<!-- Generator: Adobe Illustrator 22.0.0, SVG Export Plug-In . SVG Version: 6.00 Build 0)  -->
<svg version="1.1" id="Layer_1" xmlns="http://www.w3.org/2000/svg" xmlns:xlink="http://www.w3.org/1999/xlink" x="0px" y="0px"
	 viewBox="0 0 739.2 372.3" style="enable-background:new 0 0 739.2 372.3;" xml:space="preserve">
<style type="text/css">
	.st0{fill:#FFFFFF;}
</style>
<g id="of1unN_1_">
	<g>
		<path class="st0" d="M184.9,368.2c-24.9-0.4-58-2.6-90.1-12.8c-33.6-10.7-60-30.3-75.7-62.6c-10.3-21.1-12.6-43.7-10-66.7
			c10.7-94,90.4-189.8,199.7-213.8c36.1-7.9,72.5-10,109.1-6.6c23,2.1,45,8.4,64.1,22.3c20.6,14.9,30.3,35.1,28.6,60.7
			c-0.2,3.4-1.3,5.9-5.3,5.8c-3.3-0.1-4.6-2-4.6-5.2c-0.7-34.1-13.8-52.4-46.1-64.8C333,16,310.5,13.8,287.5,13.9
			C252.5,14,218,17.3,185,29.4C100.5,60.6,45.5,119.6,22.1,206.8c-6.9,25.7-6.7,51.8,3.8,76.9c12.4,29.7,35.5,48.3,64.9,59.7
			c21,8.1,43,11.8,65.3,12.8c21.8,1,43.6,1.5,65.4,1c26.6-0.6,52.9-4.6,79.1-9.6c47.9-9.2,94.5-22.8,139.1-42.4
			c27-11.9,53-26,79.5-38.9c2.1-1,5.3-1.8,7.2-0.9c3.7,1.6,2.7,6.3-1.9,8.8c-14.9,8.1-29.6,16.4-44.8,23.9
			c-53.1,26.1-108.7,45.1-166.6,57.1C273.7,363.3,233.8,368,184.9,368.2z"/>
		<path class="st0" d="M424.3,272.1c4.8-4.9,10.3-9.3,14.4-14.7c17.9-23.9,35.3-48.3,53.2-72.3c5.8-7.8,12.6-15,19.1-22.3
			c2.1-2.4,5-3.9,7.7-0.8c2.8,3.2,0.9,5.6-1.4,8.2c-6.9,7.9-13.7,15.9-20.5,23.9c0.5,0.5,1.1,1,1.6,1.5c4.3-4.2,8.7-8.4,12.9-12.7
			c4.4-4.5,8.7-9.2,13.1-13.8c2-2,4.2-3.5,7-1.4c2.6,1.9,2.4,4.3,1.3,7.1c-3.4,7.9-6.7,15.9-9.9,23.9c-0.8,2-0.9,4.3-1.4,6.5
			c0.5,0.4,1.1,0.8,1.6,1.1c3.2-3.2,6.7-6,9.5-9.5c8.5-10.5,16.6-21.2,25.1-31.6c1.2-1.4,3.9-1.6,5.9-2.3c0.8,2.3,1.8,4.5,2.3,6.8
			c0.2,0.7-0.6,1.7-1.2,3.2c5-3.5,9.3-6.7,13.8-9.7c1.8-1.2,3.8-2.2,5.8-2.6c4.8-1,8.7,1.9,8.1,6.7c-0.5,4.1-2.4,8.2-4.4,11.9
			c-1.9,3.5-4.8,6.5-7.3,9.7c0.3,0.3,0.7,0.7,1,1c8-7.6,15.7-15.6,24-22.8c5.2-4.5,11.2-8,17.1-11.6c1.8-1.1,4.5-1,6.8-1.1
			c3.5-0.1,6.8,0.6,7.9,4.6c1,3.8-1.4,8.9-4.9,10.6c-3.5,1.6-5.4,0.3-6.5-5.5c-2.3,1-5,1.4-6.6,2.9c-6.9,6.5-13.4,13.4-17.2,22.4
			c-0.5,1.2-1,2.5-1.4,3.7c-1.6,6.6,0.2,8.6,6.7,6.5c6.1-2,12.2-4.4,17.8-7.5c18-10.1,35.3-21.2,50.7-35.1c2.9-2.6,6.6-4.5,10.3-5.7
			c1.5-0.5,4.5,1.5,5.7,3.1c0.7,1-0.6,4.7-1.8,5.2c-13.4,6-20.6,18-28.6,29.2c-1.4,2-2.6,4.2-3.9,6.4c-0.1,0.2,0,0.6,0,2
			c2.2-2,4-3.6,5.7-5.2c7-6.6,13.8-13.5,21.1-19.8c1.9-1.6,6.5-2.8,7.8-1.8c1.9,1.6,2.7,5.4,2.6,8.2c-0.2,5.1-1.3,10.2-2.2,16.7
			c4-5.2,7.3-9.4,10.6-13.5c6-7.5,12.2-15,18.2-22.5c2.1-2.7,4.7-4.2,7.6-1.5c2.7,2.5,2,5.2-0.2,7.9c-9,11.1-17.8,22.4-26.9,33.5
			c-2.5,3.1-5.3,6.2-8.6,8.2c-2.5,1.4-6.8,2.2-9,0.9c-1.9-1-3-5.3-3-8.1c0-4.5,1.2-9.1,1.9-13.6c-0.6-0.5-1.1-1-1.7-1.5
			c-4.8,5.5-9.4,11.3-14.6,16.3c-3.4,3.2-7.7,5.9-12.1,7.6c-5.8,2.3-10.9-2.4-9.6-8.5c0.8-3.9,2.8-7.6,4.3-11.5
			c-7.1,4-14,8.5-21.4,12c-7,3.4-14.2,6.7-21.6,8.5c-10.3,2.6-15.2-1.7-16-12.5c0-0.4-0.2-0.8-0.5-1.7c-3,2.3-5.6,4.6-8.5,6.4
			c-2.8,1.7-5.8,3.4-8.9,4.2c-5.1,1.2-9.2-3.1-7.5-7.9c1.6-4.6,4.2-8.9,6.8-13.1c2.2-3.6,5-6.8,7.2-10.5c-11.4,8.8-23.4,17-31.9,29
			c-2.5,3.5-5.3,4.9-9,2.4c-3,2.7-5.7,5.4-8.7,7.7c-4.1,3-8.8,3.2-13.1,0.7c-4.4-2.5-4.6-7-4.1-11.5c0.2-2.2,0.8-4.5,1.3-7.1
			c-7.7,4.9-12.7,15.4-24.3,10.3c-11.4,15.4-22.5,31.2-34.5,46.3c-7.3,9.2-16,17.3-24.2,25.8c-1.3,1.4-3.4,2.2-5.2,2.9
			c-6.9,2.7-11.4-0.2-11.9-7.6c-0.7-11.3,2.5-21.9,7.4-31.7c11.5-22.8,23.4-45.5,35.7-67.8c27.1-48.9,54.5-97.6,81.9-146.4
			c2-3.6,4.4-7,6.7-10.5c1.5-2.4,3.5-4.5,6.5-2.6c3,1.8,2.2,4.5,0.7,7c-8.2,13.7-16.9,27.1-24.5,41.1c-24.3,44.4-48.3,89-72.4,133.5
			c-7.9,14.6-16,29.1-23.3,44c-3.8,7.8-6.2,16.4-9,24.7c-0.7,2.1-0.6,4.5-0.8,6.8C423.1,271.4,423.7,271.8,424.3,272.1z"/>
		<path class="st0" d="M252.4,202.7c-5.7,5.6-10.9,11-16.5,15.8c-3.3,2.9-7.2,5.5-11.2,7.1c-6.5,2.6-12-2.4-10-9.1
			c1.3-4.4,3.5-8.6,5.9-12.5c7.4-11.9,15.5-23.3,26.8-31.9c2.3-1.8,5.1-3.5,7.9-4c1.8-0.3,5.2,1.3,5.8,2.8c0.6,1.5-0.9,5.2-2.4,5.9
			c-15.7,7.5-22.9,22.4-32.4,35.4c0.3,0.4,0.7,0.7,1,1.1c1.6-1.4,3.3-2.7,4.8-4.2c6.9-6.5,13.5-13.4,20.7-19.5
			c2.2-1.9,6.4-3.4,8.8-2.5c3.7,1.3,3.2,5.6,2.5,9.2c-0.8,4.9-1.3,9.8-2.1,15.5c7.9-9.9,15.1-19.2,22.5-28.4
			c5.2-6.5,10.5-12.9,15.8-19.3c1.2-1.4,2.6-2.9,4.2-3.4c1.8-0.6,4.7-0.8,5.7,0.2c1,1,1,4.3,0.1,5.6c-3.9,5.9-8.3,11.6-12.5,17.4
			c12,2.3,16.4,4.7,10,24.8c13.4-11,26.2-21.6,39-32.1c3.6-2.9,7.3-5.7,11-8.6c2.3-1.8,4.7-2.8,7-0.2c2.4,2.7,1.5,5.1-0.6,7.5
			c-5.6,6.2-11.1,12.3-16.6,18.6c-1.7,1.9-2.8,4.3-4.2,6.5c0.4,0.3,0.8,0.7,1.2,1c3.9-3.8,7.9-7.6,11.8-11.5
			c4.8-4.9,9.4-9.9,14.1-14.9c1.9-2,4.1-3.6,7-1.7c3,2,2.5,4.6,1.3,7.5c-3.4,8.1-6.8,16.2-10,24.4c-0.7,1.8-0.8,3.8-1.1,5.6
			c0.4,0.3,0.8,0.7,1.2,1c1.9-1.5,4-2.9,5.6-4.7c21.4-22.4,37.1-48.8,52.4-75.5c16.7-29,34.5-57.5,51.8-86.2c0.8-1.3,1.6-3,2.7-3.4
			c1.9-0.8,5.2-1.6,6-0.7c1.2,1.4,1.9,4.8,1,6.3c-4.4,7.4-9.8,14.3-14.2,21.7c-17.1,28.8-33.9,57.8-50.2,85.6
			c4,3.5,8.7,5.8,10.3,9.4c1.9,4.2,2.4,9.9,1.1,14.3c-3.9,13.6-11,25.6-21.6,35.2c-4.5,4.1-9.7,6.5-15.4,3.1
			c-5.6-3.4-5.9-9.2-5-15.1c0.1-0.5,0.1-1,0.2-2.8c-3.8,4.7-6.7,8.8-10.2,12.4c-3.2,3.3-6.6,6.8-10.6,8.8
			c-7.8,3.9-15.4-1.8-14.8-10.6c0.2-2.7,0.9-5.5,1.5-8.8c-3.4,3-6.1,6.1-9.5,8c-3.4,1.9-7.8,4.1-11.3,3.5c-6.2-0.9-6.6-6.5-6.1-12.8
			c-8.9,7.1-17.2,13.6-25.4,20.3c-11,8.9-21.8,18-32.7,27c-2.3,1.9-5,3.6-7.5,1.2c-2.9-2.8-0.7-5.4,1.4-7.7
			c8.4-9.2,16.9-18.3,25-27.8c2.7-3.1,4.5-7,6.2-10.7c2.5-5.4,1.1-6.9-4.5-7.9c-5.2-0.9-8.5,0.5-11.4,5c-3.6,5.6-7.8,10.8-12.1,15.8
			c-3.1,3.6-6.4,7.3-10.4,9.8c-6.1,3.9-11.3,0.4-11-6.9c0.1-2.5,0.9-4.9,1.2-7.4C251.9,208.3,252.1,205.8,252.4,202.7z M402.3,209.4
			c2.2-0.8,3-0.8,3.4-1.2c10.6-9.3,18-20.7,20.9-34.6c0.4-1.8-1-4.7-2.5-5.8c-1.1-0.8-4.1,0.3-5.6,1.4c-2,1.3-3.9,3.3-4.9,5.4
			c-3.4,7.7-6.7,15.5-9.5,23.4C402.9,201.2,402.9,204.9,402.3,209.4z"/>
	</g>
</g>
</svg>
